<?xml version="1.0" standalone="no"?>
<!DOCTYPE svg PUBLIC "-//W3C//DTD SVG 20010904//EN"
 "http://www.w3.org/TR/2001/REC-SVG-20010904/DTD/svg10.dtd">
<svg version="1.0" xmlns="http://www.w3.org/2000/svg"
 width="100.000000pt" height="100.000000pt" viewBox="0 0 100.000000 100.000000"
 preserveAspectRatio="xMidYMid meet">
<metadata>
Created by potrace 1.11, written by Peter Selinger 2001-2013
</metadata>
<g transform="translate(0.000000,100.000000) scale(0.100000,-0.100000)"
fill="#000000" stroke="none">
<path d="M379 984 c-68 -23 -139 -82 -177 -144 -96 -160 -67 -286 145 -637 93
-154 130 -203 150 -203 19 0 45 36 153 215 83 137 142 253 171 336 56 167 -19
343 -180 420 -61 30 -195 36 -262 13z m210 -55 c102 -33 181 -135 194 -251 9
-75 -74 -263 -212 -483 -38 -60 -73 -109 -77 -108 -13 4 -134 200 -193 313
-97 186 -114 274 -68 373 64 138 211 203 356 156z"/>
<path d="M453 869 c-97 -17 -173 -109 -173 -209 0 -43 10 -80 26 -99 2 -2 26
13 54 34 l50 37 0 79 c0 46 4 79 10 79 6 0 10 -11 10 -24 0 -23 37 -62 48 -51
3 2 6 26 7 52 3 62 3 65 14 59 5 -3 8 -30 7 -61 -1 -30 1 -55 4 -55 19 0 50
35 50 56 0 26 17 33 22 9 2 -13 9 -12 35 8 l33 24 -23 20 c-40 36 -109 53
-174 42z"/>
<path d="M622 759 l-42 -31 0 -91 0 -92 -40 -35 c-29 -26 -37 -39 -31 -49 8
-12 16 -13 50 -2 87 26 151 111 151 202 0 46 -21 112 -40 124 -4 2 -26 -9 -48
-26z"/>
<path d="M430 680 c0 -28 2 -30 20 -20 11 6 20 15 20 20 0 5 -9 14 -20 20 -18
10 -20 8 -20 -20z"/>
<path d="M532 693 c-15 -11 -25 -31 -26 -51 -2 -37 0 -38 32 -14 18 14 23 26
20 51 l-3 33 -23 -19z"/>
<path d="M462 641 c-10 -6 -10 -10 1 -20 12 -9 16 -8 20 3 7 19 -4 27 -21 17z"/>
<path d="M430 581 c0 -27 29 -61 51 -61 12 0 0 52 -17 71 -24 27 -34 24 -34
-10z"/>
<path d="M529 597 c-17 -13 -31 -65 -19 -72 16 -10 50 27 50 56 0 32 -6 35
-31 16z"/>
<path d="M351 561 l-34 -28 24 -22 c31 -29 93 -61 118 -61 36 0 33 20 -8 58
-25 22 -41 46 -41 60 0 29 -18 27 -59 -7z"/>
</g>
</svg>
